<?xml version="1.0" standalone="no"?>
<!DOCTYPE svg PUBLIC "-//W3C//DTD SVG 20010904//EN"
 "http://www.w3.org/TR/2001/REC-SVG-20010904/DTD/svg10.dtd">
<svg version="1.0" xmlns="http://www.w3.org/2000/svg"
 width="178.000000pt" height="178.000000pt" viewBox="0 0 178.000000 178.000000"
 preserveAspectRatio="xMidYMid meet">
<metadata>
Created by potrace 1.11, written by Peter Selinger 2001-2013
</metadata>
<g transform="translate(0.000000,178.000000) scale(0.100000,-0.100000)"
fill="#000000" stroke="none">
<path d="M907 1754 c-1 -2 -18 -6 -37 -9 -19 -3 -53 -11 -75 -17 -22 -6 -53
-12 -68 -15 -48 -8 -110 -39 -148 -74 -20 -19 -47 -43 -60 -55 -56 -50 -82
-102 -94 -186 -3 -24 -8 -54 -10 -68 -2 -14 -7 -54 -11 -90 -3 -36 -8 -68 -10
-72 -3 -5 0 -8 6 -8 6 0 8 -5 4 -12 -4 -7 -9 -28 -10 -48 -1 -19 -2 -38 -3
-41 -1 -3 -14 -6 -30 -6 -59 0 -88 -53 -90 -164 -3 -113 48 -230 108 -250 8
-3 15 -23 17 -49 7 -107 43 -183 129 -279 l36 -39 -43 -29 c-75 -48 -82 -53
-110 -64 -16 -6 -28 -15 -28 -19 0 -7 -28 -21 -50 -25 -55 -10 -79 -19 -98
-33 l-23 -18 76 -39 77 -40 446 0 447 1 79 39 c79 38 79 38 57 56 -12 10 -47
23 -79 30 -31 7 -68 21 -81 31 -13 10 -27 18 -32 18 -5 0 -29 15 -54 32 l-46
33 23 18 c66 53 100 90 123 133 14 26 25 53 25 60 0 8 3 15 8 15 4 1 20 3 35
5 43 5 111 71 148 143 37 71 41 85 43 153 1 36 -4 52 -23 72 -13 14 -29 24
-35 23 -10 -2 -11 20 -2 48 1 6 7 28 11 50 5 22 10 42 10 45 1 3 5 19 9 35 4
17 12 41 17 55 5 14 11 41 14 60 3 19 9 44 12 55 14 44 10 110 -8 145 -10 19
-17 42 -14 51 3 9 -9 30 -30 52 -19 20 -30 39 -25 42 19 12 10 23 -42 49 -29
14 -75 46 -103 71 -27 24 -56 45 -62 45 -7 0 -13 4 -13 8 0 7 -38 30 -60 37
-3 1 -17 7 -31 12 -44 19 -210 39 -222 27z"/>
</g>
</svg>
