<svg version="1.1" viewBox="0 0 146 32" width="146" height="32" aria-labelledby="dtnTitle" role="img" xmlns="http://www.w3.org/2000/svg"><title id="dtnTitle">Deploy to Netlify</title><defs><linearGradient id="a" x1="15.962%" x2="136.69%" y1="-23.926%" y2="197.1%"><stop stop-color="#20C6B7" offset="0"/><stop stop-color="#4D9ABF" offset="1"/></linearGradient></defs><g fill="none" fill-rule="evenodd"><g id="Artboard"><rect id="Background" width="146" height="32" rx="4" fill="url(#a)"/><g fill="#fff"><path id="Combined-Shape" d="m72.307 18.259 0.23926 0.92969h0.041016l1.8184-5.585h1.4971l-3.1104 8.5312c-0.18685 0.49675-0.45459 0.92969-0.80322 1.2988-0.34863 0.36914-0.81917 0.55371-1.4116 0.55371-0.10938 0-0.24837-0.012532-0.41699-0.037598-0.16862-0.025065-0.2985-0.048991-0.38965-0.071777l0.13672-1.0596c-0.027344-0.0045573 0.053547-1e-7 0.24268 0.013672 0.18913 0.013672 0.30876 0.020508 0.35889 0.020508 0.28711 0 0.52181-0.1276 0.7041-0.38281s0.33496-0.53776 0.45801-0.84766l0.32129-0.77246-2.748-7.2461h1.5039l1.5586 4.6553zm-10.534-1.0254c0-1.0938 0.29622-1.995 0.88867-2.7036s1.3968-1.063 2.4131-1.063c1.0254 0 1.8354 0.35319 2.4302 1.0596 0.59473 0.70638 0.89209 1.6087 0.89209 2.707v0.15039c0 1.1029-0.29622 2.0052-0.88867 2.707s-1.3991 1.0527-2.4199 1.0527-1.8286-0.35205-2.4233-1.0562c-0.59473-0.7041-0.89209-1.6053-0.89209-2.7036v-0.15039zm1.3467 0.15039c0 0.78386 0.1652 1.431 0.49561 1.9414s0.82145 0.76562 1.4731 0.76562c0.64258 0 1.1302-0.25521 1.4629-0.76562 0.33268-0.51042 0.49902-1.1575 0.49902-1.9414v-0.15039c0-0.77474-0.16748-1.4196-0.50244-1.9346-0.33496-0.51498-0.82601-0.77246-1.4731-0.77246-0.64258 0-1.1291 0.25748-1.4595 0.77246-0.33041 0.51498-0.49561 1.1598-0.49561 1.9346v0.15039zm-3.1035 3.6162h-1.3467v-10.664h1.3467v10.664zm-3.1104-3.418c0 1.0664-0.25521 1.9266-0.76562 2.5806-0.51042 0.65397-1.2145 0.98096-2.1123 0.98096-0.45573 0-0.85563-0.076334-1.1997-0.229-0.34408-0.15267-0.63688-0.38167-0.87842-0.68701v3.6162h-1.3467v-10.24h1.0322l0.21191 0.95703c0.24154-0.35547 0.54232-0.62663 0.90234-0.81348 0.36003-0.18685 0.77929-0.28027 1.2578-0.28027 0.91602 0 1.6281 0.36344 2.1362 1.0903 0.50814 0.72689 0.76221 1.6873 0.76221 2.8813v0.14355zm-1.3467-0.14355c0-0.83855-0.1652-1.5278-0.49561-2.0679-0.33041-0.54004-0.81689-0.81006-1.4595-0.81006-0.38737 0-0.71777 0.087727-0.99121 0.26318s-0.49447 0.41585-0.66309 0.72119v3.5752c0.16862 0.30534 0.38965 0.54346 0.66309 0.71436s0.6084 0.25635 1.0049 0.25635c0.63802 0 1.1211-0.23356 1.4492-0.70068 0.32813-0.46712 0.49219-1.0698 0.49219-1.8081v-0.14355zm-9.29 3.7051c-1.03 0-1.8491-0.34293-2.4575-1.0288-0.6084-0.68588-0.9126-1.5757-0.9126-2.6694v-0.30078c0-1.0527 0.31331-1.9289 0.93994-2.6284 0.62663-0.69955 1.3683-1.0493 2.2251-1.0493 0.99805 0 1.7523 0.30078 2.2627 0.90234s0.76562 1.4036 0.76562 2.4062v0.84082h-4.7988l-0.020508 0.03418c0.013672 0.71094 0.19368 1.2954 0.54004 1.7534s0.8317 0.68701 1.4561 0.68701c0.45573 0 0.85563-0.064941 1.1997-0.19482 0.34408-0.12988 0.64144-0.30876 0.89209-0.53662l0.52637 0.875c-0.26432 0.25977-0.61295 0.47624-1.0459 0.64941-0.43294 0.17318-0.95703 0.25977-1.5723 0.25977zm-0.20508-6.6172c-0.45117 0-0.83626 0.19026-1.1553 0.5708-0.31901 0.38054-0.51497 0.85791-0.58789 1.4321l0.013672 0.03418h3.4111v-0.17773c0-0.52865-0.14127-0.9707-0.42383-1.3262s-0.70182-0.5332-1.2578-0.5332zm-11.833 6.4736v-9.9531h3.0557c1.3034 0 2.3493 0.3999 3.1377 1.1997s1.1826 1.8332 1.1826 3.1001v1.3604c0 1.2715-0.3942 2.3048-1.1826 3.1001s-1.8343 1.1929-3.1377 1.1929h-3.0557zm1.3467-8.8936v7.8408h1.709c0.92058 0 1.6463-0.30306 2.1772-0.90918 0.53093-0.60612 0.79639-1.3831 0.79639-2.3311v-1.374c0-0.93881-0.26546-1.7113-0.79639-2.3174s-1.2567-0.90918-2.1772-0.90918h-1.709z"/><path d="m131.19 18.259 0.23926 0.92969h0.041016l1.8184-5.585h1.4971l-3.1104 8.5312c-0.18685 0.49675-0.45459 0.92969-0.80322 1.2988-0.34863 0.36914-0.81917 0.55371-1.4116 0.55371-0.10938 0-0.24837-0.012532-0.41699-0.037598-0.16862-0.025065-0.2985-0.048991-0.38965-0.071777l0.13672-1.0596c-0.027344-0.0045573 0.053547-1e-7 0.24268 0.013672 0.18913 0.013672 0.30876 0.020508 0.35889 0.020508 0.28711 0 0.52181-0.1276 0.7041-0.38281s0.33496-0.53776 0.45801-0.84766l0.32129-0.77246-2.748-7.2461h1.5039l1.5586 4.6553zm-6.5352 2.7412v-6.3984h-1.1553v-0.99805h1.1553v-0.93652c0-0.78842 0.20622-1.3979 0.61865-1.8286s0.98779-0.646 1.7261-0.646c0.15495 0 0.31103 0.012532 0.46826 0.037598 0.15723 0.025065 0.33154 0.060384 0.52295 0.10596l-0.16406 1.0254c-0.082032-0.018229-0.18115-0.03418-0.29736-0.047852s-0.23812-0.020508-0.36572-0.020508c-0.39193 0-0.68359 0.11735-0.875 0.35205s-0.28711 0.57536-0.28711 1.022v0.93652h1.5381v0.99805h-1.5381v6.3984h-1.3467zm-2.6318-9.29h-1.3467v-1.374h1.3467v1.374zm0 9.29h-1.3467v-7.3965h1.3467v7.3965zm-3.5273 0h-1.3467v-10.664h1.3467v10.664zm-4.5186-9.1807v1.7842h1.4014v0.99805h-1.4014v4.4912c0 0.34636 0.071776 0.59017 0.21533 0.73145 0.14356 0.14128 0.33382 0.21191 0.5708 0.21191 0.077475 0 0.16292-0.0091145 0.25635-0.027344 0.093425-0.018229 0.1766-0.041016 0.24951-0.068359l0.17773 0.92285c-0.10026 0.082032-0.24723 0.14925-0.44092 0.20166s-0.38851 0.078613-0.58447 0.078613c-0.54688 0-0.9821-0.1652-1.3057-0.49561-0.32357-0.33041-0.48535-0.84879-0.48535-1.5552v-4.4912h-1.1758v-0.99805h1.1758v-1.7842h1.3467zm-8.5688 8.2954c-0.6084-0.68588-0.9126-1.5757-0.9126-2.6694v-0.30078c0-1.0527 0.31331-1.9289 0.93994-2.6284 0.62663-0.69955 1.3683-1.0493 2.2251-1.0493 0.99805 0 1.7523 0.30078 2.2627 0.90234 0.51042 0.60157 0.76562 1.4036 0.76562 2.4062v0.84082h-4.7988l-0.020508 0.03418c0.013672 0.71094 0.19368 1.2954 0.54004 1.7534s0.8317 0.68701 1.4561 0.68701c0.45573 0 0.85563-0.064941 1.1997-0.19482 0.34408-0.12988 0.64144-0.30876 0.89209-0.53662l0.52637 0.875c-0.26432 0.25977-0.61295 0.47624-1.0459 0.64941-0.43294 0.17318-0.95703 0.25977-1.5723 0.25977-1.03 0-1.8491-0.34293-2.4575-1.0288zm1.0972-5.0176c-0.31901 0.38054-0.51497 0.85791-0.58789 1.4321l0.013672 0.03418h3.4111v-0.17773c0-0.52865-0.14128-0.9707-0.42383-1.3262-0.28255-0.35547-0.70182-0.5332-1.2578-0.5332-0.45117 0-0.83626 0.19026-1.1553 0.5708zm-8.4629-1.4937 0.095703 1.1006c0.2461-0.39193 0.55485-0.69613 0.92627-0.9126s0.79411-0.32471 1.2681-0.32471c0.79753 0 1.415 0.23356 1.8525 0.70068s0.65625 1.1883 0.65625 2.1636v4.6689h-1.3467v-4.6416c0-0.6517-0.12874-1.1143-0.38623-1.3877-0.25749-0.27344-0.65055-0.41016-1.1792-0.41016-0.38737 0-0.7303 0.093424-1.0288 0.28027s-0.53662 0.44206-0.71436 0.76562v5.3936h-1.3467v-7.3965h1.2031zm-12.954 3.6299c0-1.0938 0.29622-1.995 0.88867-2.7036s1.3968-1.063 2.4131-1.063c1.0254 0 1.8354 0.35319 2.4302 1.0596 0.59473 0.70638 0.89209 1.6087 0.89209 2.707v0.15039c0 1.1029-0.29622 2.0052-0.88867 2.707s-1.3991 1.0527-2.4199 1.0527-1.8286-0.35205-2.4233-1.0562c-0.59473-0.7041-0.89209-1.6053-0.89209-2.7036v-0.15039zm1.3467 0.15039c0 0.78386 0.1652 1.431 0.49561 1.9414s0.82145 0.76562 1.4731 0.76562c0.64258 0 1.1302-0.25521 1.4629-0.76562 0.33268-0.51042 0.49902-1.1575 0.49902-1.9414v-0.15039c0-0.77474-0.16748-1.4196-0.50244-1.9346-0.33496-0.51498-0.82601-0.77246-1.4731-0.77246-0.64258 0-1.1291 0.25748-1.4595 0.77246-0.33041 0.51498-0.49561 1.1598-0.49561 1.9346v0.15039zm-4.0947-5.5645v1.7842h1.4014v0.99805h-1.4014v4.4912c0 0.34636 0.071777 0.59017 0.21533 0.73145 0.14356 0.14128 0.33382 0.21191 0.5708 0.21191 0.077474 0 0.16292-0.0091145 0.25635-0.027344 0.093425-0.018229 0.17659-0.041016 0.24951-0.068359l0.17773 0.92285c-0.10026 0.082032-0.24723 0.14925-0.44092 0.20166-0.19369 0.052409-0.38851 0.078613-0.58447 0.078613-0.54688 0-0.98209-0.1652-1.3057-0.49561-0.32357-0.33041-0.48535-0.84879-0.48535-1.5552v-4.4912h-1.1758v-0.99805h1.1758v-1.7842h1.3467z" opacity=".7"/><path d="m21.584 13.366c0.091076 0.045416 0.16697 0.10597 0.22769 0.1741 0.0075896 0.0075694 0.0075896 0.0075694 0.015179 0.0075694h0.0075896l1.7456-0.74937c0.0075897-0.0075694 0.015179-0.015139 0.015179-0.022708 0-0.0075693 0-0.015139-0.0075896-0.022708l-1.6318-1.6274c-0.0075896-0.0075694-0.015179-0.0075694-0.015179-0.0075694h-0.0075896c-0.0075896 0-0.015179 0.0075694-0.015179 0.022708l-0.35671 2.2027c0.0075897 0.0075694 0.015179 0.022708 0.022769 0.022708zm-3.6203-1.476c0.083486 0.12868 0.13661 0.28007 0.15179 0.43146 0 0.0075694 0.0075896 0.015139 0.015179 0.022708l2.5957 1.1127h0.0075896c0.0075896 0 0.015179 0 0.015179-0.0075694 0.075896-0.060555 0.16697-0.10597 0.26564-0.13625 0.0075896 0 0.015179-0.0075694 0.015179-0.022708l0.42502-2.6569c0-0.0075694 0-0.015139-0.0075896-0.022708l-1.6242-1.6274c-0.0075896-0.0075694-0.0075896-0.0075694-0.015179-0.0075694-0.0075897 0-0.015179 0.0075694-0.015179 0.015139l-1.8291 2.8612c-0.0075896 0.015139-0.0075896 0.030278 0 0.037847zm8.8647 4.095-2.7854-2.7855c-0.0075897-0.0075694-0.015179-0.0075694-0.015179-0.0075694h-0.0075897l-1.8898 0.80992c-0.0075896 0.0075694-0.015179 0.015139-0.015179 0.022708 0 0.0075694 0.0075897 0.022708 0.015179 0.022708l4.66 1.9907h0.0075896c0.0075897 0 0.015179 0 0.015179-0.0075694l0.015179-0.015139c0.015179 0 0.015179-0.022708 0-0.030278zm-0.46297 0.45416-4.4703-1.9075h-0.0075896c-0.0075897 0-0.015179 0-0.022769 0.0075694-0.12143 0.16653-0.30359 0.2725-0.5161 0.30278-0.0075897 0-0.022769 0.0075694-0.022769 0.022708l-0.47815 2.9596c0 0.0075694 0 0.015139 0.0075896 0.022708 0.16697 0.12868 0.26564 0.31791 0.28841 0.52986 0 0.015139 0.0075896 0.022708 0.022769 0.022708l2.7019 0.5677h0.0075896c0.0075897 0 0.015179 0 0.015179-0.0075694l2.4742-2.4752c0.0075896-0.0075694 0.0075896-0.015139 0.0075896-0.022708 0-0.0075693 0-0.015139-0.0075896-0.022708zm-5.9199-2.5282-2.4439-1.0446h-0.0075896c-0.0075896 0-0.015179 0.0075694-0.022769 0.015139-0.16697 0.25736-0.44779 0.40875-0.75137 0.40875-0.045538 0-0.091076-0.0075694-0.1442-0.015139h-0.0075896c-0.0075897 0-0.015179 0.0075694-0.022769 0.015139l-2.0113 3.1413c-0.0075897 0.0075694-0.0075897 0.022708 0 0.030278 0.0075896 0.0075694 0.015179 0.0075694 0.022769 0.0075694h0.0075896l5.3659-2.3087c0.0075896-0.0075694 0.015179-0.015139 0.015179-0.022708v-0.068125c0-0.045416 0.0075896-0.090833 0.015179-0.12868 0-0.015139-0.0075896-0.022708-0.015179-0.030278zm2.9448 5.4954-2.3756-0.49201h-0.0075896c-0.0075897 0-0.015179 0.0075694-0.022769 0.0075694-0.091076 0.11354-0.20492 0.20437-0.34153 0.25736-0.0075896 0-0.015179 0.015139-0.015179 0.022708l-0.56922 3.5273c0 0.015139 0.0075897 0.022708 0.015179 0.030278h0.015179c0.0075896 0 0.015179 0 0.015179-0.0075694l3.2939-3.2927c0.0075897-0.0075694 0.0075897-0.015139 0.0075897-0.022708 0-0.022708-0.0075897-0.030278-0.015179-0.030278zm-3.3167-0.24222c-0.22769-0.090833-0.39466-0.29521-0.45538-0.52986 0-0.0075693-0.0075896-0.015139-0.022769-0.022708l-4.402-0.9159h-0.0075897c-0.0075896 0-0.015179 0.0075694-0.022769 0.015139-0.022769 0.037847-0.037948 0.068124-0.060717 0.098402-0.0075896 0.0075693-0.0075896 0.022708 0 0.030278l4.0073 5.8436c0.0075896 0.0075694 0.0075896 0.0075694 0.015179 0.0075694 0.0075896 0 0.015179 0 0.015179-0.0075694l0.24287-0.24222c0-0.0075694 0.0075897-0.0075694 0.0075897-0.015139l0.68307-4.2389c0.015179 0 0.015179-0.015139 0-0.022708zm-4.7891-2.0059c0 0.015139 0.0075897 0.022708 0.022769 0.022708l4.364 0.90833h0.0075896c0.0075897 0 0.015179-0.0075693 0.022769-0.015139 0.12902-0.22708 0.35671-0.37847 0.61476-0.39361 0.015179 0 0.022769-0.0075694 0.022769-0.022708l0.47056-2.9142c0-0.0075694 0-0.022708-0.015179-0.022708-0.030358-0.022708-0.060717-0.045416-0.098665-0.083263-0.0075896-0.0075694-0.015179-0.0075694-0.015179-0.0075694h-0.0075896l-5.3962 2.3238c-0.015179 0.0075694-0.015179 0.015139-0.015179 0.030278 0.0075897 0.060555 0.022769 0.11354 0.022769 0.1741zm-1.8291 0.73423c-0.022769-0.030278-0.045538-0.060555-0.068307-0.098402-0.0075896-0.0075694-0.015179-0.015139-0.022769-0.015139h-0.0075896l-1.8822 0.80992c-0.0075897 0-0.015179 0.0075694-0.015179 0.015139s0 0.015139 0.0075896 0.022708l0.91835 0.9159c0.0075897 0.0075694 0.015179 0.0075694 0.015179 0.0075694 0.0075896 0 0.015179-0.0075694 0.022769-0.015139l1.0398-1.6274s0-0.0075694-0.0075896-0.015139zm1.2447 0.29521c-0.0075896-0.0075694-0.015179-0.015139-0.022769-0.015139h-0.0075896c-0.13661 0.060555-0.27323 0.090833-0.41743 0.090833-0.11384 0-0.2201-0.015139-0.33394-0.052986h-0.0075896c-0.0075897 0-0.015179 0.0075694-0.022769 0.015139l-1.0929 1.7107-0.0075897 0.0075694c-0.0075896 0.0075694-0.0075896 0.022708 0 0.030278l5.0243 5.0185c0.0075896 0.0075694 0.015179 0.0075694 0.015179 0.0075694 0.0075896 0 0.015179 0 0.015179-0.0075694l0.8804-0.88562c0.0075897-0.0075693 0.0075897-0.022708 0-0.030278l-4.0225-5.889zm-0.70584-1.9756c0.0075896 0.0075694 0.015179 0.015139 0.022769 0.015139h0.0075896c0.075896-0.015139 0.15938-0.030278 0.23528-0.030278 0.083486 0 0.17456 0.015139 0.25805 0.037847h0.0075896c0.0075897 0 0.015179-0.0075694 0.022769-0.015139l2.034-3.1791c0.0075897-0.0075694 0.0075897-0.022708 0-0.030278-0.15938-0.16653-0.25046-0.38604-0.25046-0.62069 0-0.068124 0.0075896-0.13625 0.022769-0.20437 0-0.015139-0.0075896-0.022708-0.015179-0.030278-0.25805-0.11354-2.5425-1.0824-2.5425-1.09h-0.0075896c-0.0075897 0-0.015179 0-0.015179 0.0075694l-1.9354 1.9378c-0.0075896 0.0075694-0.0075896 0.022708 0 0.030278l2.1555 3.1716zm0.2201-5.5408s2.3072 0.98402 2.4059 1.0294h0.0075897c0.0075896 0 0.0075896 0 0.015179-0.0075694 0.15938-0.12868 0.3643-0.20437 0.56922-0.20437 0.098665 0 0.19733 0.015139 0.296 0.045416h0.0075896c0.0075896 0 0.015179-0.0075693 0.022769-0.015139l1.8746-2.9294c0.0075896-0.0075694 0.0075896-0.022708 0-0.030278l-1.5559-1.5517c-0.0075896-0.0075694-0.0075896-0.0075694-0.015179-0.0075694-0.0075896 0-0.015179 0-0.015179 0.0075694l-3.6127 3.6182c-0.0075897 0.0075694-0.0075897 0.015139-0.0075897 0.022708-0.0075896 0.015139 0 0.015139 0.0075897 0.022708zm-0.89558 6.0934c0.0075896 0 0.015179-0.0075694 0.022769-0.015139 0.045538-0.090833 0.11384-0.1741 0.18215-0.24979 0.0075897-0.0075694 0.0075897-0.022708 0-0.030278-0.022769-0.030278-2.0796-3.0278-2.0796-3.0353-0.0075896-0.0075694-0.0075896-0.0075694-0.022769-0.015139-0.0075896 0-0.015179 0-0.015179 0.0075693l-2.3983 2.3919c-0.0075896 0.0075694-0.0075896 0.015139-0.0075896 0.022708s0.0075896 0.015139 0.022769 0.015139l4.2957 0.90833c-0.0075896 0-0.0075896 0 0 0zm-0.19733 0.52229c0-0.015139-0.0075896-0.022708-0.022769-0.022708l-3.7265-0.77965h-0.0075896c-0.0075896 0-0.015179 0.0075694-0.022769 0.015139s0 0.022708 0.0075896 0.030278l1.6621 1.6653c0.0075896 0.0075693 0.015179 0.0075693 0.015179 0.0075693h0.0075897l2.0644-0.88562c0.015179-0.015139 0.022769-0.022708 0.022769-0.030278z"/></g></g></g></svg>
